HIERARCHY
ROOT Hips
{
	OFFSET -40.927921 -43.994530 87.584816
	CHANNELS 6 Xposition Yposition Zposition Zrotation Yrotation Xrotation
	JOINT Spine
	{
		OFFSET 0.000000 2.080109 8.814247
		CHANNELS 6 Xposition Yposition Zposition Zrotation Yrotation Xrotation
		JOINT Spine1
		{
			OFFSET 0.000000 0.000000 8.844139
			CHANNELS 6 Xposition Yposition Zposition Zrotation Yrotation Xrotation
			JOINT Spine2
			{
				OFFSET 0.000000 0.000000 11.682266
				CHANNELS 6 Xposition Yposition Zposition Zrotation Yrotation Xrotation
				JOINT Spine3
				{
					OFFSET 0.000000 0.000004 11.746696
					CHANNELS 6 Xposition Yposition Zposition Zrotation Yrotation Xrotation
					JOINT Neck
					{
						OFFSET 0.000000 0.000000 17.658264
						CHANNELS 6 Xposition Yposition Zposition Zrotation Yrotation Xrotation
						JOINT Neck1
						{
							OFFSET 0.000000 0.000000 5.101517
							CHANNELS 6 Xposition Yposition Zposition Zrotation Yrotation Xrotation
							JOINT Head
							{
								OFFSET 0.000000 0.000000 5.101517
								CHANNELS 6 Xposition Yposition Zposition Zrotation Yrotation Xrotation
								JOINT HeadEnd
								{
									OFFSET 0.000000 0.000000 11.655090
									CHANNELS 6 Xposition Yposition Zposition Zrotation Yrotation Xrotation
									End Site
									{
										OFFSET 0.000000 0.000000 0.100006
									}
								}
							}
						}
					}
					JOINT RightShoulder
					{
						OFFSET -2.625389 0.000000 11.175217
						CHANNELS 6 Xposition Yposition Zposition Zrotation Yrotation Xrotation
						JOINT RightArm
						{
							OFFSET 0.000000 0.000000 10.434723
							CHANNELS 6 Xposition Yposition Zposition Zrotation Yrotation Xrotation
							JOINT RightForeArm
							{
								OFFSET 0.000000 0.000004 29.628418
								CHANNELS 6 Xposition Yposition Zposition Zrotation Yrotation Xrotation
								JOINT RightHand
								{
									OFFSET 0.000000 0.000000 22.857605
									CHANNELS 6 Xposition Yposition Zposition Zrotation Yrotation Xrotation
									JOINT RightHandThumb1
									{
										OFFSET -2.867321 -2.944290 3.959564
										CHANNELS 6 Xposition Yposition Zposition Zrotation Yrotation Xrotation
										JOINT RightHandThumb2
										{
											OFFSET 0.000000 0.000000 3.350403
											CHANNELS 6 Xposition Yposition Zposition Zrotation Yrotation Xrotation
											JOINT RightHandThumb3
											{
												OFFSET 0.000000 0.000000 3.756516
												CHANNELS 6 Xposition Yposition Zposition Zrotation Yrotation Xrotation
												JOINT RightHandThumb4
												{
													OFFSET 0.000000 0.000000 3.147339
													CHANNELS 6 Xposition Yposition Zposition Zrotation Yrotation Xrotation
													End Site
													{
														OFFSET 0.000000 0.000000 0.100006
													}
												}
											}
										}
									}
									JOINT RightHandIndex1
									{
										OFFSET -0.086754 -2.345280 10.030899
										CHANNELS 6 Xposition Yposition Zposition Zrotation Yrotation Xrotation
										JOINT RightHandIndex2
										{
											OFFSET 0.000000 0.000000 4.061096
											CHANNELS 6 Xposition Yposition Zposition Zrotation Yrotation Xrotation
											JOINT RightHandIndex3
											{
												OFFSET 0.000000 0.000000 3.248871
												CHANNELS 6 Xposition Yposition Zposition Zrotation Yrotation Xrotation
												JOINT RightHandIndex4
												{
													OFFSET 0.000000 0.000000 2.639709
													CHANNELS 6 Xposition Yposition Zposition Zrotation Yrotation Xrotation
													End Site
													{
														OFFSET 0.000000 0.000000 0.100006
													}
												}
											}
										}
									}
									JOINT RightHandMiddle1
									{
										OFFSET 0.104103 -0.006767 9.502945
										CHANNELS 6 Xposition Yposition Zposition Zrotation Yrotation Xrotation
										JOINT RightHandMiddle2
										{
											OFFSET 0.000000 0.000000 4.568726
											CHANNELS 6 Xposition Yposition Zposition Zrotation Yrotation Xrotation
											JOINT RightHandMiddle3
											{
												OFFSET 0.000000 0.000000 3.654984
												CHANNELS 6 Xposition Yposition Zposition Zrotation Yrotation Xrotation
												JOINT RightHandMiddle4
												{
													OFFSET 0.000000 0.000000 2.741241
													CHANNELS 6 Xposition Yposition Zposition Zrotation Yrotation Xrotation
													End Site
													{
														OFFSET 0.000000 0.000000 0.100006
													}
												}
											}
										}
									}
									JOINT RightHandRing1
									{
										OFFSET 0.086754 2.267441 8.921707
										CHANNELS 6 Xposition Yposition Zposition Zrotation Yrotation Xrotation
										JOINT RightHandRing2
										{
											OFFSET 0.000000 0.000000 4.061096
											CHANNELS 6 Xposition Yposition Zposition Zrotation Yrotation Xrotation
											JOINT RightHandRing3
											{
												OFFSET 0.000000 0.000000 3.654984
												CHANNELS 6 Xposition Yposition Zposition Zrotation Yrotation Xrotation
												JOINT RightHandRing4
												{
													OFFSET 0.000000 0.000000 2.741241
													CHANNELS 6 Xposition Yposition Zposition Zrotation Yrotation Xrotation
													End Site
													{
														OFFSET 0.000000 0.000000 0.100006
													}
												}
											}
										}
									}
									JOINT RightHandPinky1
									{
										OFFSET -0.173504 4.467197 7.976990
										CHANNELS 6 Xposition Yposition Zposition Zrotation Yrotation Xrotation
										JOINT RightHandPinky2
										{
											OFFSET 0.000000 0.000000 3.350403
											CHANNELS 6 Xposition Yposition Zposition Zrotation Yrotation Xrotation
											JOINT RightHandPinky3
											{
												OFFSET 0.000000 0.000000 2.842758
												CHANNELS 6 Xposition Yposition Zposition Zrotation Yrotation Xrotation
												JOINT RightHandPinky4
												{
													OFFSET 0.000000 0.000000 2.639709
													CHANNELS 6 Xposition Yposition Zposition Zrotation Yrotation Xrotation
													End Site
													{
														OFFSET 0.000000 0.000000 0.100006
													}
												}
											}
										}
									}
									JOINT RightForeArmEnd
									{
										OFFSET 0.000000 0.000000 0.000000
										CHANNELS 6 Xposition Yposition Zposition Zrotation Yrotation Xrotation
										End Site
										{
											OFFSET 0.000000 0.000000 0.100006
										}
									}
								}
								JOINT RightArmEnd
								{
									OFFSET 0.000000 0.000000 0.000000
									CHANNELS 6 Xposition Yposition Zposition Zrotation Yrotation Xrotation
									End Site
									{
										OFFSET 0.000000 0.000000 0.100006
									}
								}
							}
						}
					}
					JOINT LeftShoulder
					{
						OFFSET 2.625389 0.000000 11.175217
						CHANNELS 6 Xposition Yposition Zposition Zrotation Yrotation Xrotation
						JOINT LeftArm
						{
							OFFSET 0.000000 0.000000 10.813629
							CHANNELS 6 Xposition Yposition Zposition Zrotation Yrotation Xrotation
							JOINT LeftForeArm
							{
								OFFSET 0.000000 0.000004 28.724777
								CHANNELS 6 Xposition Yposition Zposition Zrotation Yrotation Xrotation
								JOINT LeftHand
								{
									OFFSET 0.644382 0.328873 25.716171
									CHANNELS 6 Xposition Yposition Zposition Zrotation Yrotation Xrotation
									JOINT LeftHandThumb1
									{
										OFFSET 2.867325 -2.944290 3.959564
										CHANNELS 6 Xposition Yposition Zposition Zrotation Yrotation Xrotation
										JOINT LeftHandThumb2
										{
											OFFSET 0.000000 0.000000 3.350403
											CHANNELS 6 Xposition Yposition Zposition Zrotation Yrotation Xrotation
											JOINT LeftHandThumb3
											{
												OFFSET 0.000000 0.000000 3.756516
												CHANNELS 6 Xposition Yposition Zposition Zrotation Yrotation Xrotation
												JOINT LeftHandThumb4
												{
													OFFSET 0.000000 0.000000 3.100006
													CHANNELS 6 Xposition Yposition Zposition Zrotation Yrotation Xrotation
													End Site
													{
														OFFSET 0.000000 0.000000 0.100006
													}
												}
											}
										}
									}
									JOINT LeftHandIndex1
									{
										OFFSET 0.086754 -2.345280 10.030899
										CHANNELS 6 Xposition Yposition Zposition Zrotation Yrotation Xrotation
										JOINT LeftHandIndex2
										{
											OFFSET 0.000000 0.000000 4.061096
											CHANNELS 6 Xposition Yposition Zposition Zrotation Yrotation Xrotation
											JOINT LeftHandIndex3
											{
												OFFSET 0.000000 0.000000 3.248871
												CHANNELS 6 Xposition Yposition Zposition Zrotation Yrotation Xrotation
												JOINT LeftHandIndex4
												{
													OFFSET 0.000000 0.000000 2.639709
													CHANNELS 6 Xposition Yposition Zposition Zrotation Yrotation Xrotation
													End Site
													{
														OFFSET 0.000000 0.000000 0.100006
													}
												}
											}
										}
									}
									JOINT LeftHandMiddle1
									{
										OFFSET -0.104103 -0.006767 9.502945
										CHANNELS 6 Xposition Yposition Zposition Zrotation Yrotation Xrotation
										JOINT LeftHandMiddle2
										{
											OFFSET 0.000000 0.000000 4.568726
											CHANNELS 6 Xposition Yposition Zposition Zrotation Yrotation Xrotation
											JOINT LeftHandMiddle3
											{
												OFFSET 0.000000 0.000000 3.654984
												CHANNELS 6 Xposition Yposition Zposition Zrotation Yrotation Xrotation
												JOINT LeftHandMiddle4
												{
													OFFSET 0.000000 0.000000 2.741241
													CHANNELS 6 Xposition Yposition Zposition Zrotation Yrotation Xrotation
													End Site
													{
														OFFSET 0.000000 0.000000 0.100006
													}
												}
											}
										}
									}
									JOINT LeftHandRing1
									{
										OFFSET -0.086754 2.267441 8.921707
										CHANNELS 6 Xposition Yposition Zposition Zrotation Yrotation Xrotation
										JOINT LeftHandRing2
										{
											OFFSET 0.000000 0.000000 4.061096
											CHANNELS 6 Xposition Yposition Zposition Zrotation Yrotation Xrotation
											JOINT LeftHandRing3
											{
												OFFSET 0.000000 0.000000 3.654984
												CHANNELS 6 Xposition Yposition Zposition Zrotation Yrotation Xrotation
												JOINT LeftHandRing4
												{
													OFFSET 0.000000 0.000000 2.741241
													CHANNELS 6 Xposition Yposition Zposition Zrotation Yrotation Xrotation
													End Site
													{
														OFFSET 0.000000 0.000000 0.100006
													}
												}
											}
										}
									}
									JOINT LeftHandPinky1
									{
										OFFSET 0.173504 4.467197 7.976990
										CHANNELS 6 Xposition Yposition Zposition Zrotation Yrotation Xrotation
										JOINT LeftHandPinky2
										{
											OFFSET 0.000000 0.000000 3.350403
											CHANNELS 6 Xposition Yposition Zposition Zrotation Yrotation Xrotation
											JOINT LeftHandPinky3
											{
												OFFSET 0.000000 0.000000 2.842758
												CHANNELS 6 Xposition Yposition Zposition Zrotation Yrotation Xrotation
												JOINT LeftHandPinky4
												{
													OFFSET 0.000000 0.000000 2.639709
													CHANNELS 6 Xposition Yposition Zposition Zrotation Yrotation Xrotation
													End Site
													{
														OFFSET 0.000000 0.000000 0.100006
													}
												}
											}
										}
									}
									JOINT LeftForeArmEnd
									{
										OFFSET 0.000000 0.000000 0.000000
										CHANNELS 6 Xposition Yposition Zposition Zrotation Yrotation Xrotation
										End Site
										{
											OFFSET 0.000000 0.000000 0.100006
										}
									}
								}
								JOINT LeftArmEnd
								{
									OFFSET 0.000000 0.000000 0.000000
									CHANNELS 6 Xposition Yposition Zposition Zrotation Yrotation Xrotation
									End Site
									{
										OFFSET 0.000000 0.000000 0.100006
									}
								}
							}
						}
					}
				}
			}
		}
	}
	JOINT RightUpLeg
	{
		OFFSET -11.289944 0.000000 0.000000
		CHANNELS 6 Xposition Yposition Zposition Zrotation Yrotation Xrotation
		JOINT RightLeg
		{
			OFFSET 0.000000 -0.000004 -38.200321
			CHANNELS 6 Xposition Yposition Zposition Zrotation Yrotation Xrotation
			JOINT RightFoot
			{
				OFFSET 0.000000 -0.000004 -39.900856
				CHANNELS 6 Xposition Yposition Zposition Zrotation Yrotation Xrotation
				JOINT RightToeBase
				{
					OFFSET 0.000000 -15.261642 0.000002
					CHANNELS 6 Xposition Yposition Zposition Zrotation Yrotation Xrotation
					JOINT RightToeBaseEnd
					{
						OFFSET 0.000000 -7.370712 0.000000
						CHANNELS 6 Xposition Yposition Zposition Zrotation Yrotation Xrotation
						End Site
						{
							OFFSET 0.000000 0.000000 0.100000
						}
					}
				}
				JOINT RightLegEnd
				{
					OFFSET 0.000000 0.000000 0.000000
					CHANNELS 6 Xposition Yposition Zposition Zrotation Yrotation Xrotation
					End Site
					{
						OFFSET 0.000000 0.000000 0.100000
					}
				}
			}
			JOINT RightUpLegEnd
			{
				OFFSET 0.000000 0.000000 0.000000
				CHANNELS 6 Xposition Yposition Zposition Zrotation Yrotation Xrotation
				End Site
				{
					OFFSET 0.000000 0.000000 0.099998
				}
			}
		}
	}
	JOINT LeftUpLeg
	{
		OFFSET 11.315662 0.000000 0.000000
		CHANNELS 6 Xposition Yposition Zposition Zrotation Yrotation Xrotation
		JOINT LeftLeg
		{
			OFFSET 0.000000 -0.000004 -38.200321
			CHANNELS 6 Xposition Yposition Zposition Zrotation Yrotation Xrotation
			JOINT LeftFoot
			{
				OFFSET 0.000000 -0.000004 -39.900856
				CHANNELS 6 Xposition Yposition Zposition Zrotation Yrotation Xrotation
				JOINT LeftToeBase
				{
					OFFSET 0.000000 -15.261642 0.000002
					CHANNELS 6 Xposition Yposition Zposition Zrotation Yrotation Xrotation
					JOINT LeftToeBaseEnd
					{
						OFFSET 0.000000 -7.539993 0.000000
						CHANNELS 6 Xposition Yposition Zposition Zrotation Yrotation Xrotation
						End Site
						{
							OFFSET 0.000000 0.000000 0.100000
						}
					}
				}
				JOINT LeftLegEnd
				{
					OFFSET 0.000000 0.000000 0.000000
					CHANNELS 6 Xposition Yposition Zposition Zrotation Yrotation Xrotation
					End Site
					{
						OFFSET 0.000000 0.000000 0.100000
					}
				}
			}
			JOINT LeftUpLegEnd
			{
				OFFSET 0.000000 0.000000 0.000000
				CHANNELS 6 Xposition Yposition Zposition Zrotation Yrotation Xrotation
				End Site
				{
					OFFSET 0.000000 0.000000 0.099998
				}
			}
		}
	}
}
MOTION
Frames: 2
Frame Time: 0.016667
1.862179 -41.210732 85.944923 2.001539 0.543581 -11.850838 -0.000001 2.080117 8.814241 0.310368 2.150141 7.913975 -0.000001 0.000000 8.844150 -0.270733 -0.216246 9.388384 0.000000 -0.000005 11.682280 2.086785 1.918164 10.943492 0.000001 0.000006 11.746694 0.466522 1.042720 1.752548 -0.000001 0.000009 17.658276 6.167814 -7.008713 7.948025 0.000000 0.000005 5.101521 5.487035 3.027329 -7.628619 -0.000000 0.000005 5.101501 3.978159 0.803300 -21.583179 0.000001 -0.000000 11.655090 -0.000000 -0.000000 0.000000 -2.625394 0.000005 11.175210 6.747319 -90.568698 -0.894500 -0.000007 0.000003 10.434719 -58.266336 -48.686924 53.286291 -0.000002 -0.000014 29.628408 18.593793 -0.805946 80.251280 -0.000002 0.000000 22.857588 -18.501820 22.362827 1.786444 -2.867332 -2.944294 3.959557 31.555488 -17.972599 50.443737 -0.000010 -0.000012 3.350386 -14.241447 9.016056 -25.485913 0.000000 0.000000 3.756511 -9.455629 6.949685 -17.426997 -0.000001 0.000007 3.147324 0.000001 -0.000000 -0.000000 -0.086752 -2.345280 10.030910 -13.305750 -21.684131 6.486865 0.000011 0.000005 4.061109 0.184893 -15.770784 2.274792 0.000007 -0.000008 3.248873 -0.315083 -15.770879 2.274713 -0.000003 -0.000006 2.639725 -0.000000 0.000000 -0.000001 0.104101 -0.006770 9.502968 -7.977705 -22.391706 2.858929 0.000015 -0.000001 4.568737 0.378989 -15.999899 0.861062 -0.000003 0.000007 3.654992 -0.121025 -15.999896 0.861067 0.000004 0.000002 2.741243 -0.000000 -0.000001 -0.000003 0.086749 2.267440 8.921713 0.525144 -23.260284 -2.593522 0.000007 0.000005 4.061100 -0.847442 -16.607672 -1.045264 0.000004 -0.000013 3.655004 0.152574 -16.607550 -1.045243 0.000011 -0.000002 2.741242 0.000001 -0.000001 -0.000001 -0.173506 4.467196 7.976968 9.680701 -21.371964 -9.202767 0.000000 -0.000008 3.350402 -1.553104 -15.960723 -3.186948 -0.000001 0.000003 2.842758 0.446901 -15.960889 -3.186923 -0.000009 0.000002 2.639694 0.000000 0.000000 0.000000 -0.000007 -0.000001 -0.000000 -0.000001 0.000001 0.000001 -0.000000 -0.000001 -0.000001 0.000002 -0.000001 0.000000 2.625398 0.000006 11.175220 -5.391194 87.556741 -0.362411 0.000028 0.000010 10.813616 58.829294 50.200514 42.583822 -0.000006 0.000025 28.724777 -14.665415 1.515383 54.312568 0.644371 0.328878 25.716166 -12.768754 -2.456363 -13.938220 2.867308 -2.944311 3.959585 -31.800268 16.060452 53.377959 0.000000 -0.000006 3.350419 10.021606 -7.237063 -18.397524 -0.000009 -0.000006 3.756550 6.707820 -5.373719 -12.625701 -0.000005 -0.000016 3.100006 0.000001 -0.000001 -0.000001 0.086752 -2.345277 10.030926 -6.407482 12.141495 -4.709838 -0.000002 -0.000008 4.061089 0.388273 8.942365 -1.266967 0.000002 0.000007 3.248875 -0.108983 8.942359 -1.261869 0.000008 0.000003 2.639710 -0.000000 0.000001 0.000000 -0.104110 -0.006770 9.502993 -1.152317 13.312840 -4.498482 -0.000010 -0.000004 4.568726 0.448010 9.629385 -0.513728 0.000007 -0.000002 3.655020 -0.050421 9.629399 -0.510100 -0.000002 -0.000008 2.741225 -0.000000 -0.000003 -0.000000 -0.086757 2.267439 8.921717 7.522503 15.881213 -1.261919 -0.000004 0.000004 4.061087 -0.920806 11.165801 0.693714 -0.000001 0.000001 3.655010 0.074814 11.165641 0.695343 -0.000000 0.000000 2.741226 -0.000001 -0.000002 -0.000001 0.173503 4.467200 7.976987 16.614845 16.706178 2.040412 0.000003 -0.000003 3.350407 -1.752471 11.671557 2.305777 0.000001 -0.000005 2.842780 0.235386 11.671474 2.302221 -0.000006 -0.000001 2.639711 0.000001 0.000004 0.000001 -0.000002 -0.000000 0.000018 0.000000 0.000002 -0.000002 -0.000001 -0.000002 -0.000011 0.000000 0.000002 -0.000004 -11.289942 0.000004 0.000013 -5.479257 13.047605 -1.657299 -0.000001 -0.000008 -38.200317 -1.079231 0.783105 35.817536 0.000007 -0.000004 -39.900852 -17.296940 -11.810720 25.138750 0.000003 -15.261647 0.000006 -1.170345 -0.235909 -33.850937 -0.000003 -7.370721 0.000001 0.000001 0.000001 0.000001 0.000001 -0.000002 0.000000 -0.000001 0.000001 -0.000002 -0.000001 -0.000004 0.000004 0.000001 -0.000001 -0.000001 11.315662 -0.000007 0.000008 4.251443 4.779722 5.255602 0.000000 -0.000010 -38.200321 0.048273 -0.025587 25.326990 0.000000 -0.000011 -39.900860 10.833016 -9.172719 8.258505 0.000000 -15.261644 0.000007 0.986766 0.208233 -28.190781 0.000001 -7.539993 0.000001 0.000000 0.000000 0.000000 -0.000000 -0.000005 0.000002 0.000001 0.000000 -0.000002 0.000000 -0.000004 0.000003 -0.000000 0.000001 0.000002 
1.886955 -41.225796 85.947205 2.288970 0.561592 -11.900219 0.000001 2.080106 8.814249 0.314215 2.172775 7.945587 -0.000001 0.000006 8.844141 -0.255289 -0.174194 9.401323 0.000000 0.000003 11.682266 2.081455 1.899500 10.885912 -0.000005 -0.000001 11.746720 0.467650 1.079394 1.770661 -0.000001 -0.000009 17.658260 5.711008 -7.159603 7.984331 0.000001 -0.000012 5.101519 5.061536 3.030377 -7.604897 -0.000001 0.000007 5.101505 3.998775 0.667371 -21.646148 0.000002 -0.000000 11.655106 -0.000000 0.000000 0.000000 -2.625393 -0.000004 11.175199 6.609428 -90.610833 -0.791478 -0.000011 -0.000001 10.434729 -58.466597 -48.649484 53.300679 -0.000006 -0.000002 29.628395 18.331847 1.983403 80.019115 0.000000 0.000010 22.857601 -15.290179 20.712250 1.581996 -2.867310 -2.944284 3.959550 31.542104 -18.150186 50.178722 -0.000006 -0.000002 3.350385 -14.636465 9.151784 -26.138086 -0.000003 -0.000020 3.756500 -9.712265 7.081450 -17.867920 0.000004 0.000004 3.147339 0.000000 -0.000000 -0.000000 -0.086736 -2.345286 10.030900 -13.708747 -23.150981 6.497054 0.000006 -0.000001 4.061099 0.141140 -16.793120 2.430838 0.000008 0.000003 3.248858 -0.358829 -16.793265 2.430842 -0.000007 0.000004 2.639724 0.000000 -0.000001 -0.000001 0.104114 -0.006767 9.502946 -8.342227 -23.923516 2.892327 -0.000015 -0.000005 4.568743 0.361268 -17.089272 0.923226 -0.000003 0.000002 3.654980 -0.138708 -17.089273 0.923207 0.000005 0.000001 2.741242 0.000000 -0.000000 -0.000001 0.086770 2.267441 8.921713 0.207531 -25.095688 -2.563385 -0.000009 -0.000000 4.061096 -0.821563 -17.907118 -1.132449 0.000005 0.000001 3.654981 0.178415 -17.907059 -1.132425 -0.000004 0.000001 2.741240 -0.000000 -0.000000 0.000002 -0.173478 4.467191 7.976973 9.461592 -23.467475 -9.430243 -0.000006 0.000012 3.350415 -1.464363 -17.416786 -3.495918 -0.000012 -0.000000 2.842787 0.535639 -17.416779 -3.495936 -0.000005 0.000002 2.639710 0.000000 -0.000000 -0.000002 0.000011 0.000001 -0.000014 0.000001 0.000002 0.000000 0.000004 0.000006 0.000017 0.000001 0.000001 -0.000001 2.625378 0.000000 11.175217 -5.367583 87.516191 -0.370636 0.000006 -0.000002 10.813633 58.975487 50.160950 42.702206 -0.000002 0.000008 28.724743 -14.636795 1.509654 54.290431 0.644377 0.328876 25.716175 -12.729455 -2.431310 -13.907314 2.867310 -2.944307 3.959577 -31.800268 16.060450 53.377990 0.000001 0.000004 3.350424 10.021622 -7.237055 -18.397586 -0.000012 -0.000003 3.756533 6.707816 -5.373707 -12.625670 -0.000009 -0.000004 3.100025 0.000001 0.000002 -0.000003 0.086759 -2.345276 10.030937 -6.417175 12.079865 -4.695850 0.000003 0.000001 4.061083 0.389256 8.898021 -1.266919 0.000005 0.000004 3.248861 -0.108029 8.897990 -1.262275 0.000004 -0.000001 2.639693 -0.000000 -0.000002 -0.000000 -0.104097 -0.006767 9.502978 -1.156362 13.269949 -4.480964 -0.000011 -0.000002 4.568727 0.449427 9.598449 -0.512945 -0.000002 -0.000004 3.654989 -0.049390 9.598219 -0.510155 -0.000004 -0.000009 2.741273 -0.000000 0.000001 -0.000000 -0.086753 2.267447 8.921734 7.524674 15.880396 -1.240897 -0.000004 0.000003 4.061093 -0.922059 11.166462 0.695861 -0.000004 -0.000002 3.654996 0.074164 11.166230 0.696973 0.000009 0.000002 2.741241 0.000001 -0.000003 -0.000001 0.173511 4.467203 7.977006 16.621873 16.734317 2.067272 -0.000003 -0.000009 3.350424 -1.752636 11.694919 2.308229 -0.000001 -0.000008 2.842777 0.236196 11.694813 2.305934 0.000001 -0.000009 2.639709 -0.000000 0.000002 0.000002 -0.000003 -0.000002 0.000000 -0.000002 0.000000 0.000000 -0.000003 0.000000 -0.000028 0.000000 0.000001 -0.000003 -11.289942 -0.000004 0.000018 -5.367682 13.008835 -1.684625 -0.000005 -0.000007 -38.200310 -1.077559 0.792598 36.134569 0.000000 -0.000004 -39.900856 -17.613642 -11.724924 25.302881 0.000001 -15.261650 0.000003 -1.111496 -0.365178 -33.993080 0.000006 -7.370720 0.000002 0.000000 0.000000 0.000001 -0.000002 -0.000002 -0.000003 -0.000002 0.000003 0.000002 0.000000 0.000001 0.000003 -0.000000 0.000000 0.000002 11.315662 -0.000017 0.000014 4.122791 4.787369 5.279845 0.000001 -0.000000 -38.200314 0.046707 -0.024697 25.352081 0.000003 -0.000008 -39.900852 10.692200 -9.227294 8.270061 0.000000 -15.261647 0.000005 0.991311 0.200151 -28.173926 0.000003 -7.540002 0.000001 0.000001 -0.000000 0.000000 0.000000 -0.000004 0.000001 0.000001 -0.000000 0.000001 0.000000 -0.000008 0.000013 -0.000000 -0.000001 0.000002 
